<svg width="54" height="54" fill="none" xmlns="http://www.w3.org/2000/svg"><path d="M46.376 9.49 29.5.21a1.687 1.687 0 0 0-1.627 0L11 9.49a1.688 1.688 0 0 0 0 2.957L27 21.247v18.088l-5.123-2.818-1.627 2.955 7.624 4.194a1.685 1.685 0 0 0 1.627 0l16.875-9.282a1.687 1.687 0 0 0 .874-1.478V10.968a1.688 1.688 0 0 0-.874-1.478ZM28.688 3.614 42.06 10.97l-13.373 7.354-13.374-7.354 13.373-7.355ZM43.874 31.91l-13.5 7.425V21.245l13.5-7.425V31.91Z" fill="#D40000"/><path d="M13.5 21.937H0v-3.375h13.5v3.375Zm3.375 13.5h-13.5v-3.375h13.5v3.375Zm3.375-6.75H6.75v-3.375h13.5v3.375Z" fill="#D40000"/></svg>