<svg width="54" height="54" fill="none" xmlns="http://www.w3.org/2000/svg"><g clip-path="url(#a)" fill="#D40000"><path d="M8.19 11.115v6.225h1.785V9.075H8.55L6.075 10.74 6.78 12l1.41-.885ZM8.355 22.23A1.14 1.14 0 0 1 9.6 23.325c0 .57-.315 1.11-1.305 1.905l-3 2.355v1.5h6.21V27.42h-3.51l1.5-1.155c1.5-1.05 1.92-1.905 1.92-3a2.746 2.746 0 0 0-3-2.64 3.944 3.944 0 0 0-3.21 1.62l1.14 1.095a2.624 2.624 0 0 1 2.01-1.11ZM9.84 36.96a1.98 1.98 0 0 0 1.5-1.905c0-1.305-1.17-2.265-3-2.265a3.915 3.915 0 0 0-3.15 1.5l1.035 1.08a2.67 2.67 0 0 1 1.95-.96c.81 0 1.38.39 1.38.99s-.54.93-1.5.93h-.87v1.5h.96c1.11 0 1.605.315 1.605.945 0 .63-.525 1.02-1.5 1.02a3 3 0 0 1-2.19-.975l-1.05 1.17a4.275 4.275 0 0 0 3.315 1.395c1.935 0 3.195-1.035 3.195-2.46a1.995 1.995 0 0 0-1.68-1.965ZM48.63 13.5a1.5 1.5 0 0 0-1.5-1.5H15v3h32.13a1.5 1.5 0 0 0 1.5-1.5ZM47.13 24H15v3h32.13a1.5 1.5 0 1 0 0-3ZM47.13 36H15v3h32.13a1.5 1.5 0 1 0 0-3Z"/></g><defs><clipPath id="a"><path fill="#fff" d="M0 0h54v54H0z"/></clipPath></defs></svg>