<svg width="54" height="54" fill="none" xmlns="http://www.w3.org/2000/svg"><g clip-path="url(#a)"><path fill-rule="evenodd" clip-rule="evenodd" d="M37.125 3.375h-20.25A3.375 3.375 0 0 0 13.5 6.75V27a1.687 1.687 0 1 1-3.375 0V6.75A6.75 6.75 0 0 1 16.875 0h20.25a6.75 6.75 0 0 1 6.75 6.75V27a1.687 1.687 0 1 1-3.375 0V6.75a3.375 3.375 0 0 0-3.375-3.375ZM40.5 47.25a3.375 3.375 0 0 1-3.375 3.375h-20.25A3.375 3.375 0 0 1 13.5 47.25V40.5a1.687 1.687 0 1 0-3.375 0v6.75a6.75 6.75 0 0 0 6.75 6.75h20.25a6.75 6.75 0 0 0 6.75-6.75V40.5a1.687 1.687 0 1 0-3.375 0v6.75ZM5.781 26.845a1.688 1.688 0 1 0-1.414-3.065c-1.17.54-2.207 1.175-2.976 1.924C.62 26.467 0 27.469 0 28.687c0 1.843 1.377 3.173 2.778 4.054 1.485.938 3.52 1.721 5.889 2.349 4.759 1.269 11.239 2.035 18.333 2.035.334 0 .665 0 .992-.007l-3.874 3.875a1.69 1.69 0 0 0 2.39 2.39l6.75-6.75a1.69 1.69 0 0 0 0-2.39l-6.75-6.75a1.688 1.688 0 0 0-2.885 1.195 1.69 1.69 0 0 0 .495 1.194l3.864 3.861-.982.007c-6.885 0-13.061-.746-17.462-1.92-2.214-.591-3.885-1.263-4.962-1.941-1.16-.732-1.201-1.181-1.201-1.201 0-.01 0-.2.378-.574.388-.378 1.046-.817 2.025-1.27h.003Zm43.852-3.065a1.687 1.687 0 1 0-1.414 3.065c.985.452 1.64.89 2.025 1.272.381.371.381.56.381.57 0 .01 0 .22-.439.632-.445.411-1.188.877-2.285 1.35-2.177.945-5.386 1.765-9.325 2.318a1.688 1.688 0 0 0 .473 3.341c4.09-.573 7.627-1.45 10.192-2.558 1.283-.553 2.407-1.205 3.24-1.98.83-.774 1.519-1.813 1.519-3.102 0-1.222-.621-2.228-1.39-2.98-.77-.753-1.806-1.388-2.977-1.928ZM25.313 6.75a1.687 1.687 0 1 0 0 3.375h3.375a1.687 1.687 0 1 0 0-3.375h-3.375Z" fill="#D40000"/></g><defs><clipPath id="a"><path fill="#fff" d="M0 0h54v54H0z"/></clipPath></defs></svg>