<svg width="35" height="35" fill="none" xmlns="http://www.w3.org/2000/svg"><g clip-path="url(#a)" fill="#222"><path d="M29.5 0H7a2.5 2.5 0 0 0-2.5 2.5v5H2V10h2.5v6.25H2v2.5h2.5V25H2v2.5h2.5v5A2.5 2.5 0 0 0 7 35h22.5a2.5 2.5 0 0 0 2.5-2.5v-30A2.5 2.5 0 0 0 29.5 0Zm0 32.5H7v-5h2.5V25H7v-6.25h2.5v-2.5H7V10h2.5V7.5H7v-5h22.5v30Z"/><path d="M14.5 7.5h10V10h-10V7.5Zm0 8.75h10v2.5h-10v-2.5Zm0 8.75h10v2.5h-10V25Z"/></g><defs><clipPath id="a"><path fill="#fff" transform="translate(2)" d="M0 0h30v35H0z"/></clipPath></defs></svg>