<svg width="35" height="35" fill="none" xmlns="http://www.w3.org/2000/svg"><path d="M11.667 5.833v17.5a2.917 2.917 0 0 0 2.916 2.917H26.25a2.917 2.917 0 0 0 2.917-2.917V10.561a2.917 2.917 0 0 0-.878-2.085l-4.835-4.728a2.917 2.917 0 0 0-2.038-.831h-6.833a2.916 2.916 0 0 0-2.916 2.916v0Z" stroke="#222" stroke-linecap="round" stroke-linejoin="round"/><path d="M23.333 26.25v2.917a2.916 2.916 0 0 1-2.916 2.916H8.75a2.917 2.917 0 0 1-2.917-2.916V13.125a2.917 2.917 0 0 1 2.917-2.917h2.917" stroke="#222" stroke-linecap="round" stroke-linejoin="round"/></svg>