<svg width="35" height="35" fill="none" xmlns="http://www.w3.org/2000/svg"><path d="M32.083 12.06V6.17c0-2.319-.933-3.252-3.252-3.252H22.94c-2.32 0-3.253.933-3.253 3.252v5.891c0 2.32.934 3.252 3.253 3.252h5.891c2.319 0 3.252-.933 3.252-3.252Zm-16.77.365v-6.62c0-2.057-.934-2.888-3.253-2.888H6.17c-2.319 0-3.252.83-3.252 2.887v6.606c0 2.071.933 2.888 3.252 2.888h5.891c2.32.014 3.252-.817 3.252-2.873Zm0 16.406V22.94c0-2.318-.934-3.252-3.253-3.252H6.17c-2.319 0-3.252.934-3.252 3.252v5.892c0 2.319.933 3.252 3.252 3.252h5.891c2.32 0 3.252-.933 3.252-3.252Z" stroke="#222" stroke-width="2.5" stroke-linecap="round" stroke-linejoin="round"/><path d="M21.146 25.52h8.75m-4.375 4.376v-8.75" stroke="#222" stroke-width="2.5" stroke-linecap="round"/></svg>