<svg width="35" height="35" fill="none" xmlns="http://www.w3.org/2000/svg"><path d="M13.125 7.292a1.458 1.458 0 1 0 0 2.916 1.458 1.458 0 0 0 0-2.916Zm-4.127 0a4.377 4.377 0 0 1 8.254 0h10.456a1.458 1.458 0 1 1 0 2.916H17.252a4.376 4.376 0 0 1-8.254 0H7.292a1.458 1.458 0 0 1 0-2.916h1.706Zm12.877 8.75a1.458 1.458 0 1 0 0 2.916 1.458 1.458 0 0 0 0-2.916Zm-4.127 0a4.377 4.377 0 0 1 8.254 0h1.706a1.458 1.458 0 1 1 0 2.916h-1.706a4.376 4.376 0 0 1-8.254 0H7.292a1.458 1.458 0 0 1 0-2.916h10.456Zm-4.623 8.75a1.458 1.458 0 1 0 0 2.916 1.458 1.458 0 0 0 0-2.916Zm-4.127 0a4.377 4.377 0 0 1 8.254 0h10.456a1.458 1.458 0 1 1 0 2.916H17.252a4.376 4.376 0 0 1-8.254 0H7.292a1.458 1.458 0 0 1 0-2.916h1.706Z" fill="#222"/></svg>