<svg width="36" height="35" fill="none" xmlns="http://www.w3.org/2000/svg"><path d="M32.583 25.083a6.778 6.778 0 0 1-1.02 3.603 6.953 6.953 0 0 1-5.98 3.397 6.935 6.935 0 0 1-5.979-3.397 6.91 6.91 0 0 1-1.02-3.603 7.001 7.001 0 0 1 14 0Z" stroke="#222" stroke-width="2" stroke-miterlimit="10" stroke-linecap="round" stroke-linejoin="round"/><path d="m22.856 25.083 1.721 1.721 3.733-3.441" stroke="#222" stroke-width="2" stroke-linecap="round" stroke-linejoin="round"/><path d="M32.583 12.673c0 2.873-.743 5.41-1.91 7.612a6.99 6.99 0 0 0-5.09-2.202c-3.864 0-7 3.136-7 7 0 1.794.686 3.428 1.794 4.667-.54.248-1.035.452-1.473.598-.496.175-1.312.175-1.808 0-4.23-1.444-13.68-7.467-13.68-17.675 0-4.506 3.632-8.152 8.109-8.152A8.092 8.092 0 0 1 18 7.773a8.092 8.092 0 0 1 6.475-3.252c4.477 0 8.108 3.646 8.108 8.152Z" stroke="#222" stroke-width="2" stroke-linecap="round" stroke-linejoin="round"/></svg>