<svg width="35" height="35" fill="none" xmlns="http://www.w3.org/2000/svg"><g clip-path="url(#a)" fill="#222"><path d="M32.774 16.81 18.19 2.226a.972.972 0 0 0-1.37 0L2.235 16.81a.972.972 0 0 0 1.37 1.37L17.5 4.289 31.393 18.19a.973.973 0 0 0 1.37-1.37l.01-.01Z"/><path d="M27.222 31.111h-4.86V21.39h-9.723v9.722H7.778v-13.61l-1.945 1.944V31.11a1.944 1.944 0 0 0 1.945 1.945h6.805v-9.723h5.834v9.723h6.805a1.944 1.944 0 0 0 1.945-1.945v-11.9l-1.945-1.944V31.11Z"/></g><defs><clipPath id="a"><path fill="#fff" d="M0 0h35v35H0z"/></clipPath></defs></svg>