<svg width="35" height="35" fill="none" xmlns="http://www.w3.org/2000/svg"><path fill-rule="evenodd" clip-rule="evenodd" d="M2.125 7a5 5 0 0 1 5-5h20a5 5 0 0 1 5 5v20a5 5 0 0 1-5 5h-20a5 5 0 0 1-5-5V7Zm26.25 14.267c0-.33-.131-.648-.365-.882l-2.5-2.5a1.25 1.25 0 0 0-1.77 0l-3.23 3.23a1.25 1.25 0 0 1-1.77 0l-5.73-5.73a1.25 1.25 0 0 0-1.77 0l-5 5a1.25 1.25 0 0 0-.365.882V27a1.25 1.25 0 0 0 1.25 1.25h20a1.25 1.25 0 0 0 1.25-1.25v-5.733ZM27.125 9.5a2.5 2.5 0 1 1-5 0 2.5 2.5 0 0 1 5 0Z" fill="#222"/></svg>