<svg width="35" height="35" fill="none" xmlns="http://www.w3.org/2000/svg"><path d="M17 17.75c4.741 0 8.586-3.358 8.586-7.5 0-4.142-3.845-7.5-8.587-7.5-4.742 0-8.587 3.358-8.587 7.5 0 4.142 3.845 7.5 8.587 7.5Z" stroke="#222" stroke-width="2"/><path d="M25.587 20.75h.604c1.256 0 2.468.401 3.409 1.127.941.726 1.546 1.727 1.702 2.815l.672 4.686c.06.422.017.85-.127 1.257a2.922 2.922 0 0 1-.707 1.1 3.446 3.446 0 0 1-1.163.75 3.86 3.86 0 0 1-1.412.265H5.435a3.86 3.86 0 0 1-1.412-.265 3.446 3.446 0 0 1-1.163-.75 2.922 2.922 0 0 1-.707-1.1 2.639 2.639 0 0 1-.126-1.257l.67-4.686c.155-1.089.76-2.09 1.703-2.816.941-.726 2.154-1.126 3.41-1.126h.603" stroke="#222" stroke-width="2" stroke-linecap="round" stroke-linejoin="round"/></svg>