<svg width="35" height="35" fill="none" xmlns="http://www.w3.org/2000/svg"><path fill-rule="evenodd" clip-rule="evenodd" d="M17 32.578c1.97 0 3.92-.383 5.74-1.126a15.016 15.016 0 0 0 4.867-3.206 14.775 14.775 0 0 0 3.251-4.798 14.608 14.608 0 0 0 0-11.319 14.776 14.776 0 0 0-3.251-4.797 15.017 15.017 0 0 0-4.867-3.206A15.187 15.187 0 0 0 17 3 15.11 15.11 0 0 0 6.393 7.332 14.684 14.684 0 0 0 2 17.789c0 3.922 1.58 7.683 4.393 10.457A15.11 15.11 0 0 0 17 32.578Zm-2.028-21.379 9.406 5.154c.26.142.476.35.627.603a1.625 1.625 0 0 1 0 1.666c-.15.252-.367.46-.627.603l-9.406 5.153a2.023 2.023 0 0 1-1.987-.024c-.3-.175-.549-.424-.722-.722a1.95 1.95 0 0 1-.263-.98v-9.727c0-.344.09-.681.263-.98.173-.298.422-.547.722-.721a2.023 2.023 0 0 1 1.987-.024Z" fill="#222"/></svg>