<svg width="36" height="35" fill="none" xmlns="http://www.w3.org/2000/svg"><path d="M5.473 32.083c0-5.643 5.615-10.208 12.527-10.208 1.4 0 2.756.19 4.025.54M18 17.5a7.292 7.292 0 1 0 0-14.584A7.292 7.292 0 0 0 18 17.5Z" stroke="#222" stroke-width="2" stroke-linecap="round" stroke-linejoin="round"/><path d="M28.923 26.22h-4.346m2.173-2.128v4.36m5.833-2.202c0 .467-.058.919-.175 1.356a5.443 5.443 0 0 1-.67 1.648 5.789 5.789 0 0 1-4.988 2.83 5.717 5.717 0 0 1-3.88-1.503 5.372 5.372 0 0 1-1.108-1.327 5.716 5.716 0 0 1-.845-3.004 5.825 5.825 0 0 1 5.833-5.833c1.72 0 3.281.743 4.331 1.94a5.81 5.81 0 0 1 1.502 3.893Z" stroke="#222" stroke-width="2" stroke-miterlimit="10" stroke-linecap="round" stroke-linejoin="round"/></svg>