<svg width="30" height="30" viewBox="0 0 30 30" fill="none" xmlns="http://www.w3.org/2000/svg">
<path d="M9.375 9.58751V8.37501C9.375 5.56251 11.6375 2.80001 14.45 2.53751C15.2315 2.46073 16.0204 2.54842 16.7659 2.79494C17.5114 3.04145 18.1971 3.44132 18.7787 3.96882C19.3604 4.49632 19.8252 5.13976 20.1432 5.85773C20.4611 6.57569 20.6253 7.35228 20.625 8.13751V9.86251M11.25 27.5H18.75C23.775 27.5 24.675 25.4875 24.9375 23.0375L25.875 15.5375C26.2125 12.4875 25.3375 10 20 10H10C4.6625 10 3.7875 12.4875 4.125 15.5375L5.0625 23.0375C5.325 25.4875 6.225 27.5 11.25 27.5Z" stroke="white" stroke-width="2" stroke-miterlimit="10" stroke-linecap="round" stroke-linejoin="round"/>
<path d="M19.3691 15H19.3816M10.6191 15H10.6291" stroke="white" stroke-width="2" stroke-linecap="round" stroke-linejoin="round"/>
</svg>
