<svg width="36" height="35" viewBox="0 0 36 35" fill="none" xmlns="http://www.w3.org/2000/svg">
<path d="M3.38975 16.3946C3.33615 16.1797 3.33221 15.9553 3.37823 15.7387C3.42426 15.522 3.51905 15.3186 3.6554 15.144C3.79174 14.9695 3.96607 14.8282 4.16515 14.7311C4.36423 14.6339 4.58282 14.5834 4.80434 14.5833H30.2377C30.4592 14.5834 30.6778 14.6339 30.8769 14.7311C31.0759 14.8282 31.2503 14.9695 31.3866 15.144C31.523 15.3186 31.6177 15.522 31.6638 15.7387C31.7098 15.9553 31.7059 16.1797 31.6523 16.3946L29.0112 26.9573C28.8535 27.5883 28.4894 28.1485 27.9768 28.5488C27.4642 28.9491 26.8324 29.1666 26.182 29.1667H8.85996C8.20956 29.1666 7.57785 28.9491 7.06523 28.5488C6.55262 28.1485 6.18852 27.5883 6.03079 26.9573L3.38975 16.3961V16.3946Z" stroke="#222222" stroke-width="2" stroke-linejoin="round"/>
<path d="M13.146 20.4167V23.3333M21.896 20.4167V23.3333M8.771 14.5833L14.6043 5.83334M26.271 14.5833L20.4377 5.83334" stroke="#222222" stroke-width="2" stroke-linecap="round"/>
</svg>
