<svg width="36" height="35" viewBox="0 0 36 35" fill="none" xmlns="http://www.w3.org/2000/svg">
<g clip-path="url(#clip0_384_22601)">
<path d="M10.171 21.35V10.5H3.521C1.596 10.5 0.0209961 12.075 0.0209961 14V24.5C0.0209961 26.425 1.596 28 3.521 28H5.271V33.25L10.521 28H19.271C21.196 28 22.771 26.425 22.771 24.5V21.315C22.656 21.3397 22.5386 21.352 22.421 21.3517H10.171V21.35ZM31.521 1.75H15.771C13.846 1.75 12.271 3.325 12.271 5.25V19.25H24.521L29.771 24.5V19.25H31.521C33.446 19.25 35.021 17.6768 35.021 15.75V5.25C35.021 3.325 33.446 1.75 31.521 1.75Z" fill="#F57702"/>
</g>
<defs>
<clipPath id="clip0_384_22601">
<rect width="35" height="35" fill="white" transform="translate(0.0209961)"/>
</clipPath>
</defs>
</svg>
