<svg width="25" height="25" viewBox="0 0 25 25" fill="none" xmlns="http://www.w3.org/2000/svg">
<path d="M8.33301 4.16666V16.6667C8.33301 17.2192 8.5525 17.7491 8.9432 18.1398C9.3339 18.5305 9.86381 18.75 10.4163 18.75H18.7497C19.3022 18.75 19.8321 18.5305 20.2228 18.1398C20.6135 17.7491 20.833 17.2192 20.833 16.6667V7.54374C20.833 7.2662 20.7775 6.99147 20.6698 6.73567C20.5621 6.47987 20.4044 6.24816 20.2059 6.05416L16.7528 2.67708C16.3636 2.29651 15.8409 2.0834 15.2965 2.08333H10.4163C9.86381 2.08333 9.3339 2.30282 8.9432 2.69352C8.5525 3.08422 8.33301 3.61413 8.33301 4.16666V4.16666Z" stroke="#8D8D8D" stroke-linecap="round" stroke-linejoin="round"/>
<path d="M16.6665 18.75V20.8333C16.6665 21.3859 16.447 21.9158 16.0563 22.3065C15.6656 22.6972 15.1357 22.9167 14.5832 22.9167H6.24984C5.6973 22.9167 5.1674 22.6972 4.7767 22.3065C4.386 21.9158 4.1665 21.3859 4.1665 20.8333V9.37499C4.1665 8.82246 4.386 8.29255 4.7767 7.90185C5.1674 7.51115 5.6973 7.29166 6.24984 7.29166H8.33317" stroke="#8D8D8D" stroke-linecap="round" stroke-linejoin="round"/>
</svg>
