<svg width="35" height="35" viewBox="0 0 35 35" fill="none" xmlns="http://www.w3.org/2000/svg">
<path d="M32.0834 12.0604V6.16874C32.0834 3.84999 31.15 2.91666 28.8313 2.91666H22.9396C20.6209 2.91666 19.6875 3.84999 19.6875 6.16874V12.0604C19.6875 14.3792 20.6209 15.3125 22.9396 15.3125H28.8313C31.15 15.3125 32.0834 14.3792 32.0834 12.0604ZM15.3125 12.425V5.80416C15.3125 3.74791 14.3792 2.91666 12.0604 2.91666H6.16877C3.85002 2.91666 2.91669 3.74791 2.91669 5.80416V12.4104C2.91669 14.4812 3.85002 15.2979 6.16877 15.2979H12.0604C14.3792 15.3125 15.3125 14.4812 15.3125 12.425ZM15.3125 28.8312V22.9396C15.3125 20.6208 14.3792 19.6875 12.0604 19.6875H6.16877C3.85002 19.6875 2.91669 20.6208 2.91669 22.9396V28.8312C2.91669 31.15 3.85002 32.0833 6.16877 32.0833H12.0604C14.3792 32.0833 15.3125 31.15 15.3125 28.8312Z" stroke="#D40000" stroke-width="2.5" stroke-linecap="round" stroke-linejoin="round"/>
<path d="M21.1458 25.5208H29.8958M25.5208 29.8958V21.1458" stroke="#D40000" stroke-width="2.5" stroke-linecap="round"/>
</svg>
