<svg width="20" height="20" viewBox="0 0 20 20" fill="none" xmlns="http://www.w3.org/2000/svg">
<g clip-path="url(#clip0_551_7371)">
<path d="M18.7278 9.60572L10.3944 1.27239C10.2903 1.16892 10.1495 1.11084 10.0028 1.11084C9.85598 1.11084 9.71518 1.16892 9.61109 1.27239L1.27775 9.60572C1.18674 9.712 1.13918 9.84871 1.14458 9.98853C1.14998 10.1284 1.20794 10.261 1.30688 10.3599C1.40583 10.4589 1.53846 10.5168 1.67828 10.5222C1.8181 10.5276 1.95481 10.4801 2.06109 10.3891L9.99998 2.45017L17.9389 10.3946C18.0451 10.4856 18.1819 10.5332 18.3217 10.5278C18.4615 10.5224 18.5941 10.4644 18.6931 10.3655C18.792 10.2665 18.85 10.1339 18.8554 9.99409C18.8608 9.85427 18.8132 9.71756 18.7222 9.61128L18.7278 9.60572Z" fill="#222222"/>
<path d="M15.5555 17.7778H12.7778V12.2223H7.2222V17.7778H4.44442V10L3.33331 11.1111V17.7778C3.33331 18.0725 3.45038 18.3551 3.65875 18.5635C3.86712 18.7719 4.14974 18.8889 4.44442 18.8889H8.33331V13.3334H11.6666V18.8889H15.5555C15.8502 18.8889 16.1328 18.7719 16.3412 18.5635C16.5496 18.3551 16.6666 18.0725 16.6666 17.7778V10.9778L15.5555 9.8667V17.7778Z" fill="#222222"/>
</g>
<defs>
<clipPath id="clip0_551_7371">
<rect width="20" height="20" fill="white"/>
</clipPath>
</defs>
</svg>
