<svg width="71" height="70" viewBox="0 0 71 70" fill="none" xmlns="http://www.w3.org/2000/svg">
<path fill-rule="evenodd" clip-rule="evenodd" d="M9.05859 17.7059C9.05859 15.4126 9.96962 13.2131 11.5913 11.5915C13.2129 9.96986 15.4123 9.05884 17.7057 9.05884H52.2939C54.5872 9.05884 56.7866 9.96986 58.4083 11.5915C60.0299 13.2131 60.9409 15.4126 60.9409 17.7059V52.2941C60.9409 54.5875 60.0299 56.7869 58.4083 58.4085C56.7866 60.0302 54.5872 60.9412 52.2939 60.9412H17.7057C15.4123 60.9412 13.2129 60.0302 11.5913 58.4085C9.96962 56.7869 9.05859 54.5875 9.05859 52.2941V17.7059ZM54.4557 42.3803C54.4555 41.8081 54.2285 41.2592 53.8244 40.8541L49.5009 36.5305C49.3001 36.3292 49.0615 36.1695 48.7989 36.0605C48.5363 35.9515 48.2547 35.8954 47.9704 35.8954C47.686 35.8954 47.4045 35.9515 47.1418 36.0605C46.8792 36.1695 46.6406 36.3292 46.4398 36.5305L40.8538 42.1165C40.653 42.3179 40.4145 42.4776 40.1518 42.5866C39.8892 42.6955 39.6076 42.7516 39.3233 42.7516C39.039 42.7516 38.7574 42.6955 38.4948 42.5866C38.2321 42.4776 37.9936 42.3179 37.7928 42.1165L27.8832 32.207C27.6824 32.0057 27.4439 31.846 27.1812 31.737C26.9186 31.628 26.6371 31.5719 26.3527 31.5719C26.0684 31.5719 25.7868 31.628 25.5242 31.737C25.2615 31.846 25.023 32.0057 24.8222 32.207L16.1751 40.8541C15.771 41.2592 15.544 41.8081 15.5439 42.3803V52.2941C15.5439 52.8675 15.7716 53.4173 16.1771 53.8227C16.5825 54.2281 17.1323 54.4559 17.7057 54.4559H52.2939C52.8672 54.4559 53.4171 54.2281 53.8225 53.8227C54.2279 53.4173 54.4557 52.8675 54.4557 52.2941V42.3803ZM52.2939 22.0294C52.2939 23.1761 51.8384 24.2758 51.0276 25.0866C50.2167 25.8974 49.117 26.353 47.9704 26.353C46.8237 26.353 45.724 25.8974 44.9132 25.0866C44.1023 24.2758 43.6468 23.1761 43.6468 22.0294C43.6468 20.8828 44.1023 19.783 44.9132 18.9722C45.724 18.1614 46.8237 17.7059 47.9704 17.7059C49.117 17.7059 50.2167 18.1614 51.0276 18.9722C51.8384 19.783 52.2939 20.8828 52.2939 22.0294Z" fill="#F57702"/>
</svg>
