<svg width="29" height="29" viewBox="0 0 29 29" fill="none" xmlns="http://www.w3.org/2000/svg">
<g clip-path="url(#clip0_1_49)">
<path d="M13.5203 15.5002C17.4723 15.5002 20.6759 12.7019 20.6759 9.25009C20.6759 5.79826 17.4723 3 13.5203 3C9.56841 3 6.36475 5.79826 6.36475 9.25009C6.36475 12.7019 9.56841 15.5002 13.5203 15.5002Z" stroke="#222222" stroke-width="2"/>
<path d="M20.6766 18H21.1803C22.2266 18.0003 23.2367 18.3342 24.021 18.9391C24.8052 19.544 25.3096 20.3782 25.4393 21.285L25.9989 25.1901C26.0492 25.5419 26.0133 25.899 25.8936 26.2378C25.7738 26.5765 25.5729 26.8891 25.3043 27.1549C25.0356 27.4206 24.7053 27.6334 24.3353 27.7792C23.9653 27.9249 23.564 28.0002 23.1581 28.0001H3.88385C3.47796 28.0002 3.0767 27.9249 2.70668 27.7792C2.33667 27.6334 2.00637 27.4206 1.73772 27.1549C1.46906 26.8891 1.26818 26.5765 1.14842 26.2378C1.02866 25.899 0.992756 25.5419 1.04309 25.1901L1.60122 21.285C1.73102 20.3778 2.2358 19.5432 3.02065 18.9383C3.8055 18.3333 4.81634 17.9996 5.86309 18H6.36541" stroke="#222222" stroke-width="2" stroke-linecap="round" stroke-linejoin="round"/>
</g>
<defs>
<clipPath id="clip0_1_49">
<rect width="28" height="28" fill="white" transform="translate(0.0209961 0.5)"/>
</clipPath>
</defs>
</svg>
