<svg width="71" height="70" viewBox="0 0 71 70" fill="none" xmlns="http://www.w3.org/2000/svg">
<path fill-rule="evenodd" clip-rule="evenodd" d="M35.5 61.25C38.9964 61.25 42.4587 60.571 45.6889 59.2518C48.9192 57.9327 51.8544 55.9991 54.3267 53.5616C56.7991 51.124 58.7603 48.2302 60.0983 45.0454C61.4363 41.8606 62.125 38.4472 62.125 35C62.125 31.5528 61.4363 28.1394 60.0983 24.9546C58.7603 21.7698 56.7991 18.876 54.3267 16.4384C51.8544 14.0009 48.9192 12.0673 45.6889 10.7482C42.4587 9.42898 38.9964 8.75 35.5 8.75C28.4386 8.75 21.6664 11.5156 16.6733 16.4384C11.6801 21.3613 8.875 28.0381 8.875 35C8.875 41.9619 11.6801 48.6387 16.6733 53.5616C21.6664 58.4844 28.4386 61.25 35.5 61.25ZM31.8997 23.3042L48.5965 32.4508C49.0575 32.7035 49.4416 33.0731 49.709 33.5213C49.9763 33.9695 50.1173 34.48 50.1173 35C50.1173 35.52 49.9763 36.0305 49.709 36.4787C49.4416 36.9269 49.0575 37.2965 48.5965 37.5492L31.8997 46.6958C31.3591 46.9921 30.7493 47.144 30.1308 47.1364C29.5123 47.1288 28.9066 46.962 28.3736 46.6526C27.8406 46.3431 27.3989 45.9017 27.0922 45.3721C26.7854 44.8426 26.6244 44.2432 26.625 43.6333V26.3667C26.6244 25.7568 26.7854 25.1574 27.0922 24.6279C27.3989 24.0983 27.8406 23.6569 28.3736 23.3474C28.9066 23.038 29.5123 22.8712 30.1308 22.8636C30.7493 22.856 31.3591 23.0079 31.8997 23.3042Z" fill="#F57702"/>
</svg>
