<svg width="60" height="59" viewBox="0 0 60 59" fill="none" xmlns="http://www.w3.org/2000/svg">
<g filter="url(#filter0_d_306_8221)">
<path d="M29.0489 11.927C29.3483 11.0057 30.6517 11.0057 30.9511 11.9271L33.7045 20.4012C33.8384 20.8132 34.2223 21.0922 34.6555 21.0922L43.5658 21.0922C44.5345 21.0922 44.9373 22.3318 44.1536 22.9012L36.945 28.1385C36.5945 28.3932 36.4479 28.8446 36.5818 29.2566L39.3352 37.7308C39.6345 38.6521 38.5801 39.4182 37.7963 38.8488L30.5878 33.6115C30.2373 33.3568 29.7627 33.3568 29.4122 33.6115L22.2037 38.8488C21.4199 39.4182 20.3655 38.6521 20.6648 37.7307L23.4182 29.2566C23.5521 28.8446 23.4055 28.3932 23.055 28.1385L15.8464 22.9012C15.0627 22.3318 15.4655 21.0922 16.4342 21.0922L25.3445 21.0922C25.7777 21.0922 26.1616 20.8132 26.2955 20.4012L29.0489 11.927Z" fill="#FFBB38"/>
</g>
<defs>
<filter id="filter0_d_306_8221" x="0.432281" y="0.236084" width="59.1354" height="57.8081" filterUnits="userSpaceOnUse" color-interpolation-filters="sRGB">
<feFlood flood-opacity="0" result="BackgroundImageFix"/>
<feColorMatrix in="SourceAlpha" type="matrix" values="0 0 0 0 0 0 0 0 0 0 0 0 0 0 0 0 0 0 127 0" result="hardAlpha"/>
<feOffset dy="4"/>
<feGaussianBlur stdDeviation="7.5"/>
<feComposite in2="hardAlpha" operator="out"/>
<feColorMatrix type="matrix" values="0 0 0 0 0.425 0 0 0 0 0.425 0 0 0 0 0.425 0 0 0 0.15 0"/>
<feBlend mode="normal" in2="BackgroundImageFix" result="effect1_dropShadow_306_8221"/>
<feBlend mode="normal" in="SourceGraphic" in2="effect1_dropShadow_306_8221" result="shape"/>
</filter>
</defs>
</svg>
