<svg width="35" height="35" viewBox="0 0 35 35" fill="none" xmlns="http://www.w3.org/2000/svg">
<path d="M2.04587 15.9262C1.98914 15.6988 1.98497 15.4614 2.03368 15.2321C2.08239 15.0028 2.1827 14.7876 2.32698 14.6029C2.47127 14.4181 2.65575 14.2687 2.86642 14.1659C3.07709 14.0631 3.30841 14.0096 3.54283 14.0095H30.4572C30.6916 14.0096 30.9229 14.0631 31.1336 14.1659C31.3442 14.2687 31.5287 14.4181 31.673 14.6029C31.8173 14.7876 31.9176 15.0028 31.9663 15.2321C32.015 15.4614 32.0109 15.6988 31.9541 15.9262L29.1593 27.104C28.9924 27.7718 28.6071 28.3646 28.0646 28.7882C27.5222 29.2118 26.8537 29.442 26.1654 29.4421H7.83462C7.14634 29.442 6.47784 29.2118 5.93538 28.7882C5.39292 28.3646 5.00761 27.7718 4.8407 27.104L2.04587 15.9278V15.9262Z" stroke="#222222" stroke-width="2" stroke-linejoin="round"/>
<path d="M12.3702 20.1825V23.269M21.6298 20.1825V23.269M7.74048 14.0095L13.9135 4.75M26.2595 14.0095L20.0865 4.75" stroke="#222222" stroke-width="2" stroke-linecap="round"/>
</svg>
