<svg width="35" height="35" viewBox="0 0 35 35" fill="none" xmlns="http://www.w3.org/2000/svg">
<path d="M10.9375 11.1854V9.77082C10.9375 6.48957 13.5771 3.26665 16.8583 2.9604C17.77 2.87083 18.6904 2.97313 19.5602 3.26073C20.43 3.54832 21.2299 4.01484 21.9085 4.63026C22.5871 5.24568 23.1294 5.99635 23.5003 6.83398C23.8713 7.67161 24.0628 8.57763 24.0625 9.49374V11.5062M13.125 32.0833H21.875C27.7375 32.0833 28.7875 29.7354 29.0937 26.8771L30.1875 18.1271C30.5812 14.5687 29.5604 11.6667 23.3333 11.6667H11.6667C5.43958 11.6667 4.41874 14.5687 4.81249 18.1271L5.90624 26.8771C6.21249 29.7354 7.26249 32.0833 13.125 32.0833Z" stroke="#222222" stroke-width="2" stroke-miterlimit="10" stroke-linecap="round" stroke-linejoin="round"/>
<path d="M22.5973 17.5H22.6119M12.389 17.5H12.4006" stroke="#222222" stroke-width="2" stroke-linecap="round" stroke-linejoin="round"/>
</svg>
