<svg width="35" height="35" viewBox="0 0 35 35" fill="none" xmlns="http://www.w3.org/2000/svg">
<g clip-path="url(#clip0_6067_2322)">
<path d="M29.5 0H7C6.33696 0 5.70107 0.263392 5.23223 0.732233C4.76339 1.20107 4.5 1.83696 4.5 2.5V7.5H2V10H4.5V16.25H2V18.75H4.5V25H2V27.5H4.5V32.5C4.5 33.163 4.76339 33.7989 5.23223 34.2678C5.70107 34.7366 6.33696 35 7 35H29.5C30.163 35 30.7989 34.7366 31.2678 34.2678C31.7366 33.7989 32 33.163 32 32.5V2.5C32 1.83696 31.7366 1.20107 31.2678 0.732233C30.7989 0.263392 30.163 0 29.5 0ZM29.5 32.5H7V27.5H9.5V25H7V18.75H9.5V16.25H7V10H9.5V7.5H7V2.5H29.5V32.5Z" fill="#222222"/>
<path d="M14.5 7.5H24.5V10H14.5V7.5ZM14.5 16.25H24.5V18.75H14.5V16.25ZM14.5 25H24.5V27.5H14.5V25Z" fill="#222222"/>
</g>
<defs>
<clipPath id="clip0_6067_2322">
<rect width="30" height="35" fill="white" transform="translate(2)"/>
</clipPath>
</defs>
</svg>
