<svg width="35" height="35" viewBox="0 0 35 35" fill="none" xmlns="http://www.w3.org/2000/svg">
<path d="M11.6667 5.83341V23.3334C11.6667 24.107 11.974 24.8488 12.521 25.3958C13.0679 25.9428 13.8098 26.2501 14.5834 26.2501H26.25C27.0236 26.2501 27.7654 25.9428 28.3124 25.3958C28.8594 24.8488 29.1667 24.107 29.1667 23.3334V10.5613C29.1666 10.1728 29.089 9.78814 28.9382 9.43002C28.7874 9.0719 28.5666 8.74752 28.2888 8.47591L23.4544 3.748C22.9095 3.21521 22.1777 2.91684 21.4156 2.91675H14.5834C13.8098 2.91675 13.0679 3.22404 12.521 3.77102C11.974 4.318 11.6667 5.05987 11.6667 5.83341V5.83341Z" stroke="#222222" stroke-linecap="round" stroke-linejoin="round"/>
<path d="M23.3333 26.25V29.1667C23.3333 29.9403 23.0261 30.6821 22.4791 31.2291C21.9321 31.7761 21.1902 32.0834 20.4167 32.0834H8.75001C7.97646 32.0834 7.2346 31.7761 6.68762 31.2291C6.14063 30.6821 5.83334 29.9403 5.83334 29.1667V13.125C5.83334 12.3515 6.14063 11.6096 6.68762 11.0626C7.2346 10.5157 7.97646 10.2084 8.75001 10.2084H11.6667" stroke="#222222" stroke-linecap="round" stroke-linejoin="round"/>
</svg>
