<svg width="35" height="35" viewBox="0 0 35 35" fill="none" xmlns="http://www.w3.org/2000/svg">
<path d="M13.125 7.2917C12.7382 7.2917 12.3673 7.44535 12.0938 7.71884C11.8203 7.99233 11.6667 8.36326 11.6667 8.75003C11.6667 9.13681 11.8203 9.50774 12.0938 9.78123C12.3673 10.0547 12.7382 10.2084 13.125 10.2084C13.5118 10.2084 13.8827 10.0547 14.1562 9.78123C14.4297 9.50774 14.5833 9.13681 14.5833 8.75003C14.5833 8.36326 14.4297 7.99233 14.1562 7.71884C13.8827 7.44535 13.5118 7.2917 13.125 7.2917ZM8.99793 7.2917C9.29922 6.4378 9.85796 5.69837 10.5971 5.17535C11.3363 4.65233 12.2195 4.37146 13.125 4.37146C14.0305 4.37146 14.9137 4.65233 15.6529 5.17535C16.3921 5.69837 16.9508 6.4378 17.2521 7.2917H27.7083C28.0951 7.2917 28.4661 7.44535 28.7395 7.71884C29.013 7.99233 29.1667 8.36326 29.1667 8.75003C29.1667 9.13681 29.013 9.50774 28.7395 9.78123C28.4661 10.0547 28.0951 10.2084 27.7083 10.2084H17.2521C16.9508 11.0623 16.3921 11.8017 15.6529 12.3247C14.9137 12.8477 14.0305 13.1286 13.125 13.1286C12.2195 13.1286 11.3363 12.8477 10.5971 12.3247C9.85796 11.8017 9.29922 11.0623 8.99793 10.2084H7.29168C6.9049 10.2084 6.53397 10.0547 6.26048 9.78123C5.98699 9.50774 5.83334 9.13681 5.83334 8.75003C5.83334 8.36326 5.98699 7.99233 6.26048 7.71884C6.53397 7.44535 6.9049 7.2917 7.29168 7.2917H8.99793ZM21.875 16.0417C21.4882 16.0417 21.1173 16.1953 20.8438 16.4688C20.5703 16.7423 20.4167 17.1133 20.4167 17.5C20.4167 17.8868 20.5703 18.2577 20.8438 18.5312C21.1173 18.8047 21.4882 18.9584 21.875 18.9584C22.2618 18.9584 22.6327 18.8047 22.9062 18.5312C23.1797 18.2577 23.3333 17.8868 23.3333 17.5C23.3333 17.1133 23.1797 16.7423 22.9062 16.4688C22.6327 16.1953 22.2618 16.0417 21.875 16.0417ZM17.7479 16.0417C18.0492 15.1878 18.608 14.4484 19.3471 13.9254C20.0863 13.4023 20.9695 13.1215 21.875 13.1215C22.7805 13.1215 23.6637 13.4023 24.4029 13.9254C25.1421 14.4484 25.7008 15.1878 26.0021 16.0417H27.7083C28.0951 16.0417 28.4661 16.1953 28.7395 16.4688C29.013 16.7423 29.1667 17.1133 29.1667 17.5C29.1667 17.8868 29.013 18.2577 28.7395 18.5312C28.4661 18.8047 28.0951 18.9584 27.7083 18.9584H26.0021C25.7008 19.8123 25.1421 20.5517 24.4029 21.0747C23.6637 21.5977 22.7805 21.8786 21.875 21.8786C20.9695 21.8786 20.0863 21.5977 19.3471 21.0747C18.608 20.5517 18.0492 19.8123 17.7479 18.9584H7.29168C6.9049 18.9584 6.53397 18.8047 6.26048 18.5312C5.98699 18.2577 5.83334 17.8868 5.83334 17.5C5.83334 17.1133 5.98699 16.7423 6.26048 16.4688C6.53397 16.1953 6.9049 16.0417 7.29168 16.0417H17.7479ZM13.125 24.7917C12.7382 24.7917 12.3673 24.9453 12.0938 25.2188C11.8203 25.4923 11.6667 25.8633 11.6667 26.25C11.6667 26.6368 11.8203 27.0077 12.0938 27.2812C12.3673 27.5547 12.7382 27.7084 13.125 27.7084C13.5118 27.7084 13.8827 27.5547 14.1562 27.2812C14.4297 27.0077 14.5833 26.6368 14.5833 26.25C14.5833 25.8633 14.4297 25.4923 14.1562 25.2188C13.8827 24.9453 13.5118 24.7917 13.125 24.7917ZM8.99793 24.7917C9.29922 23.9378 9.85796 23.1984 10.5971 22.6753C11.3363 22.1523 12.2195 21.8715 13.125 21.8715C14.0305 21.8715 14.9137 22.1523 15.6529 22.6753C16.3921 23.1984 16.9508 23.9378 17.2521 24.7917H27.7083C28.0951 24.7917 28.4661 24.9453 28.7395 25.2188C29.013 25.4923 29.1667 25.8633 29.1667 26.25C29.1667 26.6368 29.013 27.0077 28.7395 27.2812C28.4661 27.5547 28.0951 27.7084 27.7083 27.7084H17.2521C16.9508 28.5623 16.3921 29.3017 15.6529 29.8247C14.9137 30.3477 14.0305 30.6286 13.125 30.6286C12.2195 30.6286 11.3363 30.3477 10.5971 29.8247C9.85796 29.3017 9.29922 28.5623 8.99793 27.7084H7.29168C6.9049 27.7084 6.53397 27.5547 6.26048 27.2812C5.98699 27.0077 5.83334 26.6368 5.83334 26.25C5.83334 25.8633 5.98699 25.4923 6.26048 25.2188C6.53397 24.9453 6.9049 24.7917 7.29168 24.7917H8.99793Z" fill="#222222"/>
</svg>
