<svg width="36" height="35" viewBox="0 0 36 35" fill="none" xmlns="http://www.w3.org/2000/svg">
<path d="M32.5832 25.0834C32.5832 26.3959 32.2186 27.6355 31.5624 28.6855C30.9459 29.7217 30.0705 30.5797 29.0223 31.1754C27.974 31.7711 26.7889 32.084 25.5832 32.0834C23.0311 32.0834 20.7999 30.7126 19.604 28.6855C18.9624 27.6355 18.5832 26.3959 18.5832 25.0834C18.6206 23.2516 19.3745 21.5075 20.6832 20.2253C21.9919 18.943 23.751 18.2249 25.5832 18.2249C27.4153 18.2249 29.1745 18.943 30.4832 20.2253C31.7919 21.5075 32.5458 23.2516 32.5832 25.0834Z" stroke="#222222" stroke-width="2" stroke-miterlimit="10" stroke-linecap="round" stroke-linejoin="round"/>
<path d="M22.8564 25.0834L24.5772 26.8042L28.3105 23.3625" stroke="#222222" stroke-width="2" stroke-linecap="round" stroke-linejoin="round"/>
<path d="M32.5833 12.673C32.5833 15.5459 31.8396 18.0834 30.6729 20.2855C30.0196 19.5907 29.2311 19.0369 28.3558 18.6582C27.4805 18.2795 26.537 18.0839 25.5833 18.0834C21.7187 18.0834 18.5833 21.2188 18.5833 25.0834C18.5833 26.8771 19.2687 28.5105 20.3771 29.75C19.8375 29.998 19.3417 30.2021 18.9042 30.348C18.4083 30.523 17.5917 30.523 17.0958 30.348C12.8667 28.9042 3.41666 22.8813 3.41666 12.673C3.41666 8.16671 7.04791 4.52087 11.525 4.52087C14.1646 4.52087 16.5271 5.80421 18 7.77296C18.7523 6.76498 19.7292 5.94624 20.8532 5.38172C21.9771 4.8172 23.2172 4.52246 24.475 4.52087C28.9521 4.52087 32.5833 8.16671 32.5833 12.673Z" stroke="#222222" stroke-width="2" stroke-linecap="round" stroke-linejoin="round"/>
</svg>
