<svg width="35" height="35" viewBox="0 0 35 35" fill="none" xmlns="http://www.w3.org/2000/svg">
<g clip-path="url(#clip0_6004_3408)">
<path d="M32.7736 16.8098L18.1903 2.22644C18.0081 2.04536 17.7617 1.94373 17.5048 1.94373C17.248 1.94373 17.0016 2.04536 16.8194 2.22644L2.2361 16.8098C2.07682 16.9958 1.99359 17.235 2.00304 17.4797C2.0125 17.7244 2.11393 17.9565 2.28708 18.1296C2.46022 18.3028 2.69233 18.4042 2.93702 18.4137C3.1817 18.4231 3.42094 18.3399 3.60693 18.1806L17.5 4.28755L31.393 18.1903C31.579 18.3496 31.8183 18.4328 32.063 18.4234C32.3076 18.4139 32.5397 18.3125 32.7129 18.1393C32.886 17.9662 32.9875 17.7341 32.9969 17.4894C33.0064 17.2447 32.9232 17.0055 32.7639 16.8195L32.7736 16.8098Z" fill="#222222"/>
<path d="M27.2222 31.1112H22.3611V21.3889H12.6389V31.1112H7.77776V17.5001L5.83331 19.4445V31.1112C5.83331 31.6269 6.03817 32.1214 6.40283 32.4861C6.76748 32.8508 7.26206 33.0556 7.77776 33.0556H14.5833V23.3334H20.4166V33.0556H27.2222C27.7379 33.0556 28.2325 32.8508 28.5971 32.4861C28.9618 32.1214 29.1666 31.6269 29.1666 31.1112V19.2112L27.2222 17.2667V31.1112Z" fill="#222222"/>
</g>
<defs>
<clipPath id="clip0_6004_3408">
<rect width="35" height="35" fill="white"/>
</clipPath>
</defs>
</svg>
