<svg width="35" height="35" viewBox="0 0 35 35" fill="none" xmlns="http://www.w3.org/2000/svg">
<path fill-rule="evenodd" clip-rule="evenodd" d="M2.125 7C2.125 5.67392 2.65178 4.40215 3.58947 3.46447C4.52715 2.52678 5.79892 2 7.125 2H27.125C28.4511 2 29.7229 2.52678 30.6605 3.46447C31.5982 4.40215 32.125 5.67392 32.125 7V27C32.125 28.3261 31.5982 29.5979 30.6605 30.5355C29.7229 31.4732 28.4511 32 27.125 32H7.125C5.79892 32 4.52715 31.4732 3.58947 30.5355C2.65178 29.5979 2.125 28.3261 2.125 27V7ZM28.375 21.2675C28.3749 20.9366 28.2437 20.6193 28.01 20.385L25.51 17.885C25.3939 17.7686 25.2559 17.6762 25.1041 17.6132C24.9522 17.5502 24.7894 17.5178 24.625 17.5178C24.4606 17.5178 24.2978 17.5502 24.1459 17.6132C23.9941 17.6762 23.8561 17.7686 23.74 17.885L20.51 21.115C20.3939 21.2314 20.2559 21.3238 20.1041 21.3868C19.9522 21.4498 19.7894 21.4822 19.625 21.4822C19.4606 21.4822 19.2978 21.4498 19.1459 21.3868C18.9941 21.3238 18.8561 21.2314 18.74 21.115L13.01 15.385C12.8939 15.2686 12.7559 15.1762 12.6041 15.1132C12.4522 15.0502 12.2894 15.0178 12.125 15.0178C11.9606 15.0178 11.7978 15.0502 11.6459 15.1132C11.4941 15.1762 11.3561 15.2686 11.24 15.385L6.24 20.385C6.00633 20.6193 5.87507 20.9366 5.875 21.2675V27C5.875 27.3315 6.0067 27.6495 6.24112 27.8839C6.47554 28.1183 6.79348 28.25 7.125 28.25H27.125C27.4565 28.25 27.7745 28.1183 28.0089 27.8839C28.2433 27.6495 28.375 27.3315 28.375 27V21.2675ZM27.125 9.5C27.125 10.163 26.8616 10.7989 26.3928 11.2678C25.9239 11.7366 25.288 12 24.625 12C23.962 12 23.3261 11.7366 22.8572 11.2678C22.3884 10.7989 22.125 10.163 22.125 9.5C22.125 8.83696 22.3884 8.20107 22.8572 7.73223C23.3261 7.26339 23.962 7 24.625 7C25.288 7 25.9239 7.26339 26.3928 7.73223C26.8616 8.20107 27.125 8.83696 27.125 9.5Z" fill="#222222"/>
</svg>
