<svg width="35" height="35" viewBox="0 0 35 35" fill="none" xmlns="http://www.w3.org/2000/svg">
<path d="M16.9992 17.7502C21.7415 17.7502 25.5859 14.3923 25.5859 10.2501C25.5859 6.10791 21.7415 2.75 16.9992 2.75C12.2569 2.75 8.41249 6.10791 8.41249 10.2501C8.41249 14.3923 12.2569 17.7502 16.9992 17.7502Z" stroke="#222222" stroke-width="2"/>
<path d="M25.5867 20.75H26.1912C27.4467 20.7503 28.6589 21.1511 29.6 21.8769C30.5411 22.6028 31.1463 23.6039 31.302 24.6921L31.9735 29.3781C32.0339 29.8003 31.9908 30.2288 31.8471 30.6353C31.7034 31.0418 31.4623 31.4169 31.1399 31.7358C30.8175 32.0547 30.4212 32.3101 29.9772 32.485C29.5332 32.6599 29.0516 32.7503 28.5646 32.7502H5.43543C4.94836 32.7503 4.46684 32.6599 4.02282 32.485C3.57881 32.3101 3.18245 32.0547 2.86006 31.7358C2.53767 31.4169 2.29662 31.0418 2.15291 30.6353C2.0092 30.2288 1.96611 29.8003 2.02651 29.3781L2.69627 24.6921C2.85203 23.6034 3.45777 22.6019 4.39958 21.8759C5.3414 21.15 6.55441 20.7496 7.81051 20.75H8.4133" stroke="#222222" stroke-width="2" stroke-linecap="round" stroke-linejoin="round"/>
</svg>
