<svg width="35" height="35" viewBox="0 0 35 35" fill="none" xmlns="http://www.w3.org/2000/svg">
<path fill-rule="evenodd" clip-rule="evenodd" d="M17 32.5775C18.9698 32.5775 20.9204 32.1949 22.7403 31.4517C24.5601 30.7085 26.2137 29.6192 27.6066 28.2459C28.9995 26.8727 30.1044 25.2424 30.8582 23.4481C31.612 21.6539 32 19.7308 32 17.7887C32 15.8466 31.612 13.9236 30.8582 12.1293C30.1044 10.3351 28.9995 8.70478 27.6066 7.33152C26.2137 5.95826 24.5601 4.86893 22.7403 4.12573C20.9204 3.38252 18.9698 3 17 3C13.0218 3 9.20644 4.55809 6.3934 7.33152C3.58035 10.1049 2 13.8665 2 17.7887C2 21.7109 3.58035 25.4725 6.3934 28.2459C9.20644 31.0194 13.0218 32.5775 17 32.5775ZM14.9717 11.1995L24.3783 16.3526C24.638 16.4949 24.8544 16.7031 25.005 16.9557C25.1557 17.2082 25.2351 17.4958 25.2351 17.7887C25.2351 18.0817 25.1557 18.3693 25.005 18.6218C24.8544 18.8743 24.638 19.0825 24.3783 19.2249L14.9717 24.3779C14.6671 24.5448 14.3236 24.6304 13.9751 24.6261C13.6267 24.6219 13.2854 24.5279 12.9851 24.3535C12.6848 24.1792 12.436 23.9305 12.2632 23.6322C12.0904 23.3338 11.9997 22.9961 12 22.6526V12.9249C11.9997 12.5813 12.0904 12.2436 12.2632 11.9453C12.436 11.6469 12.6848 11.3983 12.9851 11.2239C13.2854 11.0496 13.6267 10.9556 13.9751 10.9513C14.3236 10.9471 14.6671 11.0326 14.9717 11.1995Z" fill="#222222"/>
</svg>
