<svg width="35" height="35" viewBox="0 0 35 35" fill="none" xmlns="http://www.w3.org/2000/svg">
<path d="M16.0489 4.92705C16.3483 4.00574 17.6517 4.00574 17.9511 4.92705L20.1432 11.6738C20.2771 12.0858 20.661 12.3647 21.0943 12.3647H28.1882C29.1569 12.3647 29.5597 13.6044 28.776 14.1738L23.0369 18.3435C22.6864 18.5981 22.5397 19.0495 22.6736 19.4615L24.8657 26.2082C25.1651 27.1295 24.1106 27.8956 23.3269 27.3262L17.5878 23.1565C17.2373 22.9019 16.7627 22.9019 16.4122 23.1565L10.6731 27.3262C9.88941 27.8956 8.83493 27.1295 9.13428 26.2082L11.3264 19.4615C11.4603 19.0495 11.3136 18.5981 10.9631 18.3435L5.22405 14.1738C4.44034 13.6044 4.84311 12.3647 5.81184 12.3647H12.9057C13.339 12.3647 13.7229 12.0858 13.8568 11.6738L16.0489 4.92705Z" fill="#222222"/>
</svg>
