<svg width="36" height="35" viewBox="0 0 36 35" fill="none" xmlns="http://www.w3.org/2000/svg">
<path d="M17.0489 4.92705C17.3483 4.00574 18.6517 4.00574 18.9511 4.92705L21.1432 11.6738C21.2771 12.0858 21.661 12.3647 22.0943 12.3647H29.1882C30.1569 12.3647 30.5597 13.6044 29.7759 14.1738L24.0369 18.3435C23.6864 18.5981 23.5397 19.0495 23.6736 19.4615L25.8657 26.2082C26.1651 27.1295 25.1106 27.8956 24.3269 27.3262L18.5878 23.1565C18.2373 22.9019 17.7627 22.9019 17.4122 23.1565L11.6731 27.3262C10.8894 27.8956 9.83493 27.1295 10.1343 26.2082L12.3264 19.4615C12.4603 19.0495 12.3136 18.5981 11.9631 18.3435L6.22405 14.1738C5.44034 13.6044 5.84311 12.3647 6.81184 12.3647H13.9057C14.339 12.3647 14.7229 12.0858 14.8568 11.6738L17.0489 4.92705Z" fill="#222222"/>
</svg>
