<svg width="36" height="35" viewBox="0 0 36 35" fill="none" xmlns="http://www.w3.org/2000/svg">
<path d="M5.47293 32.0833C5.47293 26.4395 11.0875 21.875 18 21.875C19.4 21.875 20.7563 22.0645 22.025 22.4145M18 17.5C19.9339 17.5 21.7885 16.7317 23.156 15.3643C24.5235 13.9968 25.2917 12.1422 25.2917 10.2083C25.2917 8.27442 24.5235 6.41976 23.156 5.05231C21.7885 3.68485 19.9339 2.91663 18 2.91663C16.0661 2.91663 14.2115 3.68485 12.844 5.05231C11.4766 6.41976 10.7083 8.27442 10.7083 10.2083C10.7083 12.1422 11.4766 13.9968 12.844 15.3643C14.2115 16.7317 16.0661 17.5 18 17.5Z" stroke="#222222" stroke-width="2" stroke-linecap="round" stroke-linejoin="round"/>
<path d="M28.9229 26.2208H24.5771M26.75 24.0916V28.452M32.5833 26.25C32.5833 26.7166 32.525 27.1687 32.4083 27.6062C32.2771 28.1895 32.0438 28.7583 31.7375 29.2541C31.2234 30.1182 30.4931 30.8335 29.6186 31.3295C28.7441 31.8256 27.7554 32.0854 26.75 32.0833C25.3142 32.0875 23.9294 31.5513 22.8708 30.5812C22.4333 30.202 22.0542 29.75 21.7625 29.2541C21.2074 28.3506 20.9145 27.3104 20.9167 26.25C20.9157 25.4836 21.0659 24.7247 21.3587 24.0165C21.6516 23.3083 22.0812 22.6649 22.6231 22.123C23.1649 21.5812 23.8084 21.1515 24.5165 20.8587C25.2247 20.5659 25.9837 20.4157 26.75 20.4166C28.4708 20.4166 30.0313 21.1604 31.0813 22.3562C32.0146 23.3916 32.5833 24.7625 32.5833 26.25Z" stroke="#222222" stroke-width="2" stroke-miterlimit="10" stroke-linecap="round" stroke-linejoin="round"/>
</svg>
