<svg width="54" height="54" viewBox="0 0 54 54" fill="none" xmlns="http://www.w3.org/2000/svg">
<path d="M46.3758 9.49021L29.5008 0.208961C29.2517 0.0718796 28.9719 0 28.6875 0C28.4031 0 28.1233 0.0718796 27.8741 0.208961L10.9991 9.49021C10.7345 9.63588 10.5139 9.8499 10.3602 10.1099C10.2065 10.3699 10.1255 10.6664 10.1255 10.9685C10.1255 11.2705 10.2065 11.567 10.3602 11.827C10.5139 12.087 10.7345 12.301 10.9991 12.4467L27 21.247V39.3353L21.8767 36.5172L20.25 39.472L27.8741 43.6655C28.1232 43.8028 28.403 43.8749 28.6875 43.8749C28.9719 43.8749 29.2518 43.8028 29.5008 43.6655L46.3758 34.3842C46.6405 34.2386 46.8613 34.0246 47.015 33.7646C47.1688 33.5046 47.2499 33.208 47.25 32.906V10.9685C47.2499 10.6664 47.1688 10.3698 47.015 10.1098C46.8613 9.8498 46.6405 9.63581 46.3758 9.49021ZM28.6875 3.61434L42.0609 10.9685L28.6875 18.3226L15.314 10.9685L28.6875 3.61434ZM43.875 31.9086L30.375 39.3336V21.2453L43.875 13.8203V31.9086Z" fill="#D40000"/>
<path d="M13.5 21.937H0V18.562H13.5V21.937ZM16.875 35.437H3.375V32.062H16.875V35.437ZM20.25 28.687H6.75V25.312H20.25V28.687Z" fill="#D40000"/>
</svg>
