<svg width="54" height="54" viewBox="0 0 54 54" fill="none" xmlns="http://www.w3.org/2000/svg">
<g clip-path="url(#clip0_25_893)">
<path d="M8.19001 11.115V17.34H9.97501V9.07495H8.55001L6.07501 10.74L6.78001 12L8.19001 11.115Z" fill="#D40000"/>
<path d="M8.35502 22.2301C8.50959 22.2157 8.66548 22.233 8.81311 22.281C8.96075 22.329 9.09704 22.4066 9.21361 22.5091C9.33018 22.6117 9.42458 22.7369 9.49102 22.8772C9.55747 23.0175 9.59456 23.1699 9.60002 23.3251C9.60002 23.8951 9.28502 24.4351 8.29502 25.2301L5.29502 27.5851V29.0851H11.505V27.4201H7.99502L9.49502 26.2651C10.995 25.2151 11.415 24.3601 11.415 23.2651C11.4023 22.891 11.3133 22.5235 11.1534 22.1851C10.9934 21.8467 10.766 21.5446 10.485 21.2973C10.204 21.0501 9.87547 20.8629 9.51949 20.7473C9.16352 20.6317 8.78766 20.5901 8.41502 20.6251C7.78988 20.6214 7.17283 20.7664 6.61472 21.0481C6.05662 21.3297 5.57344 21.74 5.20502 22.2451L6.34502 23.3401C6.57405 23.0148 6.87401 22.7459 7.22221 22.5536C7.57042 22.3613 7.95778 22.2507 8.35502 22.2301Z" fill="#D40000"/>
<path d="M9.84001 36.9599C10.2658 36.8535 10.6442 36.6087 10.9157 36.2639C11.1872 35.919 11.3365 35.4938 11.34 35.0549C11.34 33.7499 10.17 32.7899 8.34001 32.7899C7.73473 32.7794 7.13525 32.9093 6.58868 33.1696C6.04211 33.4299 5.56335 33.8134 5.19001 34.2899L6.22501 35.3699C6.46455 35.0821 6.76196 34.8479 7.0979 34.6825C7.43385 34.5171 7.80083 34.4242 8.17501 34.4099C8.98501 34.4099 9.55501 34.7999 9.55501 35.3999C9.55501 35.9999 9.01501 36.3299 8.05501 36.3299H7.18501V37.8299H8.14501C9.25501 37.8299 9.75001 38.1449 9.75001 38.7749C9.75001 39.4049 9.22501 39.7949 8.25001 39.7949C7.83756 39.7917 7.4302 39.7034 7.05339 39.5357C6.67658 39.3679 6.33841 39.1242 6.06001 38.8199L5.01001 39.9899C5.42805 40.4493 5.94117 40.8121 6.51367 41.053C7.08617 41.2939 7.70429 41.4072 8.32501 41.3849C10.26 41.3849 11.52 40.3499 11.52 38.9249C11.5188 38.4512 11.3492 37.9935 11.0414 37.6335C10.7336 37.2734 10.3077 37.0347 9.84001 36.9599Z" fill="#D40000"/>
<path d="M48.63 13.5C48.63 13.1022 48.472 12.7206 48.1907 12.4393C47.9094 12.158 47.5278 12 47.13 12H15V15H47.13C47.5278 15 47.9094 14.842 48.1907 14.5607C48.472 14.2794 48.63 13.8978 48.63 13.5Z" fill="#D40000"/>
<path d="M47.13 24H15V27H47.13C47.5278 27 47.9094 26.842 48.1907 26.5607C48.472 26.2794 48.63 25.8978 48.63 25.5C48.63 25.1022 48.472 24.7206 48.1907 24.4393C47.9094 24.158 47.5278 24 47.13 24Z" fill="#D40000"/>
<path d="M47.13 36H15V39H47.13C47.5278 39 47.9094 38.842 48.1907 38.5607C48.472 38.2794 48.63 37.8978 48.63 37.5C48.63 37.1022 48.472 36.7206 48.1907 36.4393C47.9094 36.158 47.5278 36 47.13 36Z" fill="#D40000"/>
</g>
<defs>
<clipPath id="clip0_25_893">
<rect width="54" height="54" fill="white"/>
</clipPath>
</defs>
</svg>
