<svg width="54" height="54" viewBox="0 0 54 54" fill="none" xmlns="http://www.w3.org/2000/svg">
<g clip-path="url(#clip0_25_903)">
<path fill-rule="evenodd" clip-rule="evenodd" d="M37.125 3.375H16.875C15.9799 3.375 15.1215 3.73058 14.4885 4.36351C13.8556 4.99645 13.5 5.85489 13.5 6.75V27C13.5 27.4476 13.3222 27.8768 13.0057 28.1932C12.6893 28.5097 12.2601 28.6875 11.8125 28.6875C11.3649 28.6875 10.9357 28.5097 10.6193 28.1932C10.3028 27.8768 10.125 27.4476 10.125 27V6.75C10.125 4.95979 10.8362 3.2429 12.102 1.97703C13.3679 0.711159 15.0848 0 16.875 0L37.125 0C38.9152 0 40.6321 0.711159 41.898 1.97703C43.1638 3.2429 43.875 4.95979 43.875 6.75V27C43.875 27.4476 43.6972 27.8768 43.3807 28.1932C43.0643 28.5097 42.6351 28.6875 42.1875 28.6875C41.7399 28.6875 41.3107 28.5097 40.9943 28.1932C40.6778 27.8768 40.5 27.4476 40.5 27V6.75C40.5 5.85489 40.1444 4.99645 39.5115 4.36351C38.8785 3.73058 38.0201 3.375 37.125 3.375ZM40.5 47.25C40.5 48.1451 40.1444 49.0035 39.5115 49.6365C38.8785 50.2694 38.0201 50.625 37.125 50.625H16.875C15.9799 50.625 15.1215 50.2694 14.4885 49.6365C13.8556 49.0035 13.5 48.1451 13.5 47.25V40.5C13.5 40.0524 13.3222 39.6232 13.0057 39.3068C12.6893 38.9903 12.2601 38.8125 11.8125 38.8125C11.3649 38.8125 10.9357 38.9903 10.6193 39.3068C10.3028 39.6232 10.125 40.0524 10.125 40.5V47.25C10.125 49.0402 10.8362 50.7571 12.102 52.023C13.3679 53.2888 15.0848 54 16.875 54H37.125C38.9152 54 40.6321 53.2888 41.898 52.023C43.1638 50.7571 43.875 49.0402 43.875 47.25V40.5C43.875 40.0524 43.6972 39.6232 43.3807 39.3068C43.0643 38.9903 42.6351 38.8125 42.1875 38.8125C41.7399 38.8125 41.3107 38.9903 40.9943 39.3068C40.6778 39.6232 40.5 40.0524 40.5 40.5V47.25ZM5.78138 26.8447C6.18775 26.6572 6.50299 26.3159 6.65775 25.896C6.8125 25.476 6.79409 25.0118 6.60656 24.6054C6.51371 24.4042 6.38213 24.2233 6.21935 24.0729C6.05656 23.9225 5.86575 23.8057 5.65781 23.7291C5.23786 23.5743 4.77363 23.5927 4.36725 23.7803C3.19613 24.3202 2.16 24.9548 1.3905 25.704C0.621 26.4668 0 27.4691 0 28.6875C0 30.5303 1.377 31.86 2.77763 32.7409C4.26263 33.6791 6.29775 34.4621 8.667 35.0899C13.4257 36.3589 19.9058 37.125 27 37.125C27.3341 37.125 27.6649 37.125 27.9922 37.1183L24.1178 40.9927C23.9609 41.1496 23.8364 41.3359 23.7515 41.5409C23.6666 41.7459 23.6229 41.9656 23.6229 42.1875C23.6229 42.4094 23.6666 42.6291 23.7515 42.8341C23.8364 43.0391 23.9609 43.2254 24.1178 43.3823C24.4346 43.6991 24.8644 43.8771 25.3125 43.8771C25.5344 43.8771 25.7541 43.8334 25.9591 43.7485C26.1641 43.6636 26.3504 43.5391 26.5072 43.3823L33.2573 36.6323C33.4144 36.4755 33.5391 36.2893 33.6242 36.0843C33.7092 35.8792 33.753 35.6595 33.753 35.4375C33.753 35.2155 33.7092 34.9958 33.6242 34.7907C33.5391 34.5857 33.4144 34.3995 33.2573 34.2427L26.5072 27.4928C26.3504 27.3359 26.1641 27.2114 25.9591 27.1265C25.7541 27.0416 25.5344 26.9979 25.3125 26.9979C25.0906 26.9979 24.8709 27.0416 24.6659 27.1265C24.4609 27.2114 24.2746 27.3359 24.1178 27.4928C23.9609 27.6496 23.8364 27.8359 23.7515 28.0409C23.6666 28.2459 23.6229 28.4656 23.6229 28.6875C23.6229 28.9094 23.6666 29.1291 23.7515 29.3341C23.8364 29.5391 23.9609 29.7254 24.1178 29.8822L27.9821 33.7433L27 33.75C20.115 33.75 13.9388 33.0041 9.53775 31.8296C7.32375 31.239 5.65312 30.5674 4.5765 29.889C3.4155 29.1566 3.375 28.7078 3.375 28.6875C3.375 28.6774 3.375 28.4884 3.753 28.1138C4.14113 27.7358 4.79925 27.297 5.778 26.8447H5.78138ZM49.6328 23.7803C49.2264 23.5927 48.7621 23.5743 48.3422 23.7291C47.9222 23.8838 47.581 24.1991 47.3934 24.6054C47.2059 25.0118 47.1875 25.476 47.3423 25.896C47.497 26.3159 47.8122 26.6572 48.2186 26.8447C49.2041 27.297 49.8589 27.7358 50.2436 28.1171C50.625 28.4884 50.625 28.6774 50.625 28.6875C50.625 28.6976 50.625 28.9069 50.1862 29.3186C49.7407 29.7304 48.9982 30.1961 47.9014 30.6686C45.7245 31.6136 42.5149 32.4338 38.5763 32.9873C38.1393 33.0568 37.7471 33.2952 37.4841 33.6511C37.2212 34.007 37.1086 34.4519 37.1706 34.8901C37.2325 35.3282 37.4641 35.7245 37.8154 35.9935C38.1667 36.2626 38.6096 36.3829 39.0487 36.3285C43.1392 35.7547 46.6763 34.8772 49.2412 33.7702C50.5238 33.2167 51.6476 32.5654 52.4813 31.7891C53.3115 31.0162 54 29.9767 54 28.6875C54 27.4657 53.379 26.46 52.6095 25.7074C51.84 24.9548 50.8039 24.3202 49.6328 23.7803ZM25.3125 6.75C24.8649 6.75 24.4357 6.92779 24.1193 7.24426C23.8028 7.56073 23.625 7.98995 23.625 8.4375C23.625 8.88505 23.8028 9.31427 24.1193 9.63074C24.4357 9.94721 24.8649 10.125 25.3125 10.125H28.6875C29.1351 10.125 29.5643 9.94721 29.8807 9.63074C30.1972 9.31427 30.375 8.88505 30.375 8.4375C30.375 7.98995 30.1972 7.56073 29.8807 7.24426C29.5643 6.92779 29.1351 6.75 28.6875 6.75H25.3125Z" fill="#D40000"/>
</g>
<defs>
<clipPath id="clip0_25_903">
<rect width="54" height="54" fill="white"/>
</clipPath>
</defs>
</svg>
